# xmcd
#
# Track frame offsets: 
#        150
#        16537
#        32442
#        47847
#        60200
#        73372
#        86830
#        102060
#        113892
#        133760
#        146562
#        157770
#
# Disc length: 2329 seconds
#
# Revision: 0
# Processed by: cddbd v1.5.2PL0 Copyright (c) Steve Scherf et al.
# Submitted via: ExactAudioCopy v0.99pb5
#
DISCID=9409170c
DTITLE=Tina Turner - Soul Deep
DYEAR=2000
DGENRE=R&B
TTITLE0=Lay it Down
TTITLE1=Good Hearted Woman
TTITLE2=If This is Our Last Time
TTITLE3=Stand By Your Man
TTITLE4=If It's Alright By You
TTITLE5=Freedom to Stay
TTITLE6=We Had it All
TTITLE7=Soul Deep
TTITLE8=Lovin' Him Was Easier
TTITLE9=You Ain't Woman Enough to Take My Man
TTITLE10=Raise Your Hand
TTITLE11=Golden Empire
EXTD=
EXTT0=
EXTT1=
EXTT2=
EXTT3=
EXTT4=
EXTT5=
EXTT6=
EXTT7=
EXTT8=
EXTT9=
EXTT10=
EXTT11=
PLAYORDER=
